<svg xmlns="http://www.w3.org/2000/svg" viewBox="0 0 422.93 123.19"><defs><style>.cls-1{fill:#2f2f2f;}.cls-2{fill:#d1d5d8;}.cls-3{fill:#6ac0ec;}.cls-4{fill:#6dc38f;}.cls-5{fill:#ffe44b;}.cls-6{fill:#da4246;isolation:isolate;}.cls-7{fill:#fff;}</style></defs><g id="Layer_2" data-name="Layer 2"><g id="Layer_1-2" data-name="Layer 1"><path class="cls-1" d="M161,41.45a7.56,7.56,0,0,1,0-10.58,7.45,7.45,0,0,1,12.74,5.29A7.48,7.48,0,0,1,161,41.45Zm10.61,52.36H160.93a1,1,0,0,1-1-1V53.28a1,1,0,0,1,1-1h10.64a1,1,0,0,1,1,1v39.5A1,1,0,0,1,171.57,93.81Z"/><path class="cls-1" d="M233.6,60.52l-13.75,27.8a1,1,0,0,1-.93.58h-6.59a1,1,0,0,1-.92-.58L197.74,60.54a1,1,0,0,0-2,.46V92.78a1,1,0,0,1-1,1H183.61a1,1,0,0,1-1-1V35.68a1,1,0,0,1,1-1h16.17a1,1,0,0,1,.94.59l14,29.92a1,1,0,0,0,1.86,0l14.11-29.93a1,1,0,0,1,.93-.59h16.09a1,1,0,0,1,1,1v57.1a1,1,0,0,1-1,1H236.59a1,1,0,0,1-1-1V61A1,1,0,0,0,233.6,60.52Z"/><path class="cls-1" d="M304.34,93.18l-5-11.53a1,1,0,0,0-.95-.62H275a1,1,0,0,0-.94.62l-5,11.53a1,1,0,0,1-.94.63H256.33a1,1,0,0,1-.94-1.44l24.67-57.1a1,1,0,0,1,.94-.62h11.43a1,1,0,0,1,.94.62L318,92.37a1,1,0,0,1-1,1.44h-11.8A1,1,0,0,1,304.34,93.18ZM285.81,54.45,279.93,68a1,1,0,0,0,.95,1.44h11.68A1,1,0,0,0,293.5,68l-5.8-13.55A1,1,0,0,0,285.81,54.45Z"/><path class="cls-1" d="M365.34,39.94q6.21,5.3,6.22,16.25t-6.39,16q-6.39,5.07-19.51,5.07h-6.84a1,1,0,0,0-1,1V92.78a1,1,0,0,1-1,1H325.62a1,1,0,0,1-1-1V35.68a1,1,0,0,1,1-1h19.87Q359.13,34.65,365.34,39.94Zm-9.69,23.27c1.58-1.77,2.37-4.37,2.37-7.78s-1-5.84-3.09-7.28S349.67,46,345.32,46h-6.5a1,1,0,0,0-1,1V64.85a1,1,0,0,0,1,1h7.86Q353.28,65.88,355.65,63.21Z"/><path class="cls-1" d="M394,46.46a5.09,5.09,0,0,0-1.91,4.14,4.71,4.71,0,0,0,2.33,4.11q2.32,1.51,10.75,3.59t13.07,6.22q4.65,4.16,4.66,12.11a16,16,0,0,1-6,12.9q-6,4.95-15.7,5-13.59,0-24.57-9.74a1,1,0,0,1-.11-1.43l6.58-8.07a1,1,0,0,1,1.47-.12q9.11,7.68,16.89,7.68a9.31,9.31,0,0,0,5.71-1.56A5,5,0,0,0,409.3,77a4.91,4.91,0,0,0-2.2-4.23q-2.21-1.57-8.71-3.18-10.33-2.44-15.11-6.39T378.5,50.86q0-8.43,6.05-13t15.1-4.57a36.19,36.19,0,0,1,11.85,2,32.09,32.09,0,0,1,9.59,5.15,1,1,0,0,1,.19,1.39l-5.54,8a1,1,0,0,1-1.45.23,25.66,25.66,0,0,0-15.06-5.21A7.91,7.91,0,0,0,394,46.46Z"/><path class="cls-2" d="M78.67,69.4.62,52.9a61.6,61.6,0,0,0,59,70.29L80.12,72.11A2,2,0,0,0,78.67,69.4Z"/><path class="cls-3" d="M100.79,61.07l22.3,4.71c.09-1.38.14-2.77.14-4.17a61.32,61.32,0,0,0-11.08-35.24l-12.81,32A2,2,0,0,0,100.79,61.07Z"/><path class="cls-4" d="M93,74.13,73.83,122a61.69,61.69,0,0,0,47.1-43.69L95.3,72.91A2,2,0,0,0,93,74.13Z"/><path class="cls-5" d="M86.44,56.33l16.27-40.61a61.61,61.61,0,0,0-99,24.83l80.46,17A2,2,0,0,0,86.44,56.33Z"/><path class="cls-6" d="M75.27,44c0,9.1-3.17,11.64-20.25,36.41a2.82,2.82,0,0,1-3.93.71,3,3,0,0,1-.71-.71C33.31,55.62,30.13,53.08,30.13,44a22.57,22.57,0,0,1,45.14,0Z"/><circle class="cls-7" cx="52.7" cy="42.82" r="9.84"/></g></g></svg>